<svg width="19" height="17" viewBox="0 0 19 17" fill="none" xmlns="http://www.w3.org/2000/svg">
<path fill-rule="evenodd" clip-rule="evenodd" d="M18.25 8.49992C18.25 8.79 18.1348 9.0682 17.9297 9.27332C17.7245 9.47843 17.4463 9.59367 17.1563 9.59367H4.48406L9.18063 14.288C9.28232 14.3897 9.36299 14.5105 9.41802 14.6433C9.47306 14.7762 9.50138 14.9186 9.50138 15.0624C9.50138 15.2062 9.47306 15.3486 9.41802 15.4815C9.36299 15.6144 9.28232 15.7351 9.18063 15.8368C9.07893 15.9385 8.95821 16.0192 8.82534 16.0742C8.69247 16.1292 8.55007 16.1575 8.40625 16.1575C8.26244 16.1575 8.12003 16.1292 7.98716 16.0742C7.8543 16.0192 7.73357 15.9385 7.63188 15.8368L1.06938 9.27429C0.96752 9.17269 0.886707 9.052 0.831568 8.91912C0.776429 8.78623 0.748047 8.64378 0.748047 8.49992C0.748047 8.35605 0.776429 8.2136 0.831568 8.08072C0.886707 7.94784 0.96752 7.82714 1.06938 7.72554L7.63188 1.16304C7.83725 0.957665 8.11581 0.842285 8.40625 0.842285C8.6967 0.842285 8.97525 0.957665 9.18063 1.16304C9.386 1.36842 9.50138 1.64697 9.50138 1.93742C9.50138 2.22786 9.386 2.50642 9.18063 2.71179L4.48406 7.40617H17.1563C17.4463 7.40617 17.7245 7.5214 17.9297 7.72652C18.1348 7.93164 18.25 8.20984 18.25 8.49992Z" fill="black" fill-opacity="0.25"/>
</svg>
