<svg width="14" height="11" viewBox="0 0 14 11" fill="none" xmlns="http://www.w3.org/2000/svg">
<path fill-rule="evenodd" clip-rule="evenodd" d="M0.498505 5.50001C0.498505 5.29281 0.58633 5.0941 0.742661 4.94758C0.898992 4.80107 1.11102 4.71876 1.33211 4.71876H10.9902L7.41073 1.36564C7.2542 1.21894 7.16627 1.01997 7.16627 0.812511C7.16627 0.605049 7.2542 0.406083 7.41073 0.259386C7.56726 0.112688 7.77956 0.0302734 8.00092 0.0302734C8.22229 0.0302734 8.43458 0.112688 8.59111 0.259386L13.5927 4.94689C13.6704 5.01946 13.7319 5.10567 13.774 5.20058C13.816 5.2955 13.8376 5.39725 13.8376 5.50001C13.8376 5.60277 13.816 5.70452 13.774 5.79944C13.7319 5.89435 13.6704 5.98057 13.5927 6.05314L8.59111 10.7406C8.43458 10.8873 8.22229 10.9697 8.00092 10.9697C7.77956 10.9697 7.56726 10.8873 7.41073 10.7406C7.2542 10.5939 7.16627 10.395 7.16627 10.1875C7.16627 9.98005 7.2542 9.78108 7.41073 9.63439L10.9902 6.28126H1.33211C1.11102 6.28126 0.898992 6.19895 0.742661 6.05244C0.58633 5.90593 0.498505 5.70721 0.498505 5.50001Z" fill="white"/>
</svg>
