<svg width="33" height="35" viewBox="0 0 33 35" fill="none" xmlns="http://www.w3.org/2000/svg">
<g clip-path="url(#clip0_5_353)">
<path d="M31.7954 6.58945C33.0649 5.29551 33.0649 3.19414 31.7954 1.90019C30.5258 0.606247 28.4641 0.606247 27.1946 1.90019L16.5 12.8107L5.79536 1.91054C4.52583 0.616598 2.46411 0.616598 1.19458 1.91054C-0.0749512 3.20449 -0.0749512 5.30586 1.19458 6.5998L11.8993 17.5L1.20474 28.4105C-0.0647947 29.7045 -0.0647947 31.8059 1.20474 33.0998C2.47427 34.3938 4.53599 34.3938 5.80552 33.0998L16.5 22.1893L27.2047 33.0895C28.4743 34.3834 30.536 34.3834 31.8055 33.0895C33.0751 31.7955 33.0751 29.6941 31.8055 28.4002L21.1008 17.5L31.7954 6.58945Z" fill="black"/>
</g>
<defs>
<clipPath id="clip0_5_353">
<rect width="33" height="35" fill="white"/>
</clipPath>
</defs>
</svg>
