<svg width="64" height="64" viewBox="0 0 64 64" fill="none" xmlns="http://www.w3.org/2000/svg">
<ellipse cx="31.8667" cy="32" rx="31.8667" ry="32" fill="#E8B931"/>
<g clip-path="url(#clip0_2_21)">
<path d="M34.1109 21.375C34.1109 21.9386 33.8885 22.4791 33.4926 22.8776C33.0967 23.2761 32.5597 23.5 31.9998 23.5C31.4399 23.5 30.9029 23.2761 30.507 22.8776C30.1111 22.4791 29.8887 21.9386 29.8887 21.375C29.8887 20.8114 30.1111 20.2709 30.507 19.8724C30.9029 19.4739 31.4399 19.25 31.9998 19.25C32.5597 19.25 33.0967 19.4739 33.4926 19.8724C33.8885 20.2709 34.1109 20.8114 34.1109 21.375ZM35.5029 26.6875C37.2116 25.5453 38.3332 23.593 38.3332 21.375C38.3332 17.8555 35.4963 15 31.9998 15C28.5033 15 25.6665 17.8555 25.6665 21.375C25.6665 23.593 26.788 25.5453 28.4967 26.6875H27.7776C26.6099 26.6875 25.6665 27.6371 25.6665 28.8125C25.6665 29.9879 26.6099 30.9375 27.7776 30.9375H29.8887V44.75H26.722C23.2255 44.75 20.3887 41.8945 20.3887 38.375V37.9699L20.8505 38.4348C21.4707 39.059 22.4734 39.059 23.087 38.4348C23.7005 37.8105 23.7071 36.8012 23.087 36.1836L19.3991 32.4648C18.779 31.8406 17.7762 31.8406 17.1627 32.4648L13.4616 36.1836C12.8415 36.8078 12.8415 37.8172 13.4616 38.4348C14.0818 39.0523 15.0845 39.059 15.6981 38.4348L16.1599 37.9699V38.375C16.1599 44.2453 20.8835 49 26.7154 49H31.9932H37.271C43.1029 49 47.8266 44.2453 47.8266 38.375V37.9699L48.2884 38.4348C48.9085 39.059 49.9113 39.059 50.5248 38.4348C51.1384 37.8105 51.145 36.8012 50.5248 36.1836L46.8304 32.4648C46.2102 31.8406 45.2075 31.8406 44.5939 32.4648L40.8995 36.1836C40.2793 36.8078 40.2793 37.8172 40.8995 38.4348C41.5196 39.0523 42.5224 39.059 43.1359 38.4348L43.5977 37.9699V38.375C43.5977 41.8945 40.7609 44.75 37.2644 44.75H34.0977V30.9375H36.2088C37.3766 30.9375 38.32 29.9879 38.32 28.8125C38.32 27.6371 37.3766 26.6875 36.2088 26.6875H35.4897H35.5029Z" fill="#B3261E"/>
</g>
<defs>
<clipPath id="clip0_2_21">
<rect width="38" height="34" fill="white" transform="translate(13 15)"/>
</clipPath>
</defs>
</svg>
