<svg width="32" height="32" viewBox="0 0 32 32" fill="none" xmlns="http://www.w3.org/2000/svg">
<path d="M22.38 24.39C26.412 23.91 29.92 21.44 30.36 19.184C31.056 15.628 31 10.506 31 10.506C31 3.566 26.428 1.53 26.428 1.53C24.124 0.476 20.166 0.034 16.054 0H15.954C11.84 0.034 7.884 0.476 5.58 1.53C5.58 1.53 1.01 3.564 1.01 10.506L1.006 11.83C0.998004 13.11 0.992004 14.53 1.028 16.012C1.194 22.8 2.28 29.492 8.588 31.152C11.496 31.918 13.994 32.078 16.006 31.968C19.652 31.768 21.7 30.674 21.7 30.674L21.58 28.04C21.58 28.04 18.974 28.86 16.046 28.76C13.146 28.66 10.086 28.448 9.616 24.904C9.57346 24.575 9.55142 24.2437 9.55 23.912C9.55 23.912 12.398 24.604 16.006 24.768C18.212 24.868 20.28 24.64 22.382 24.39H22.38ZM25.606 19.45H22.26V11.29C22.26 9.572 21.532 8.7 20.078 8.7C18.47 8.7 17.664 9.734 17.664 11.782V16.248H14.336V11.78C14.336 9.732 13.53 8.698 11.922 8.698C10.468 8.698 9.74 9.57 9.74 11.29V19.448H6.394V11.044C6.394 9.32667 6.834 7.96267 7.714 6.952C8.626 5.942 9.818 5.424 11.3 5.424C13.012 5.424 14.308 6.08 15.166 7.39L16 8.78L16.834 7.39C17.692 6.08 18.988 5.424 20.702 5.424C22.182 5.424 23.374 5.942 24.284 6.952C25.1667 7.96133 25.6073 9.32533 25.606 11.044V19.45Z" fill="#E8B931"/>
</svg>
